HIERARCHY
ROOT Pelvis
{
	OFFSET 0.000000 0.000000 0.000000
	CHANNELS 6 Xposition Yposition Zposition Xrotation Yrotation Zrotation
	JOINT LeftUpLeg_virtual
	{
		OFFSET 0.000000 0.000000 0.000000
		CHANNELS 3 Xrotation Yrotation Zrotation
		JOINT LeftUpLeg
		{
			OFFSET 18.735201 -5.666702 -4.541200
			CHANNELS 3 Xrotation Yrotation Zrotation
			JOINT LeftLeg
			{
				OFFSET -0.021200 -31.938179 0.493100
				CHANNELS 3 Xrotation Yrotation Zrotation
				JOINT LeftFoot
				{
					OFFSET 0.021200 -31.938179 -4.336299
					CHANNELS 3 Xrotation Yrotation Zrotation
					JOINT LeftToeBase
					{
						OFFSET 0.943001 -26.722000 15.023500
						CHANNELS 3 Xrotation Yrotation Zrotation
						End Site
						{
							OFFSET 0 0 0
						}
					}
				}
			}
		}
	}
	JOINT RightUpLeg_virtual
	{
		OFFSET 0.000000 0.000000 0.000000
		CHANNELS 3 Xrotation Yrotation Zrotation
		JOINT RightUpLeg
		{
			OFFSET -18.735201 -5.666702 -4.541200
			CHANNELS 3 Xrotation Yrotation Zrotation
			JOINT RightLeg
			{
				OFFSET 0.018946 -31.938133 0.493100
				CHANNELS 3 Xrotation Yrotation Zrotation
				JOINT RightFoot
				{
					OFFSET -0.018946 -31.938126 -4.336299
					CHANNELS 3 Xrotation Yrotation Zrotation
					JOINT RightToeBase
					{
						OFFSET -0.943001 -26.722004 15.023500
						CHANNELS 3 Xrotation Yrotation Zrotation
						End Site
						{
							OFFSET 0 0 0
						}
					}
				}
			}
		}
	}
	JOINT Hips_virtual
	{
		OFFSET 0.000000 0.000000 0.000000
		CHANNELS 3 Xrotation Yrotation Zrotation
		JOINT Hips
		{
			OFFSET -0.000000 -0.000000 -0.000000
			CHANNELS 3 Xrotation Yrotation Zrotation
			JOINT Spine
			{
				OFFSET 0.000000 10.199997 -0.299500
				CHANNELS 3 Xrotation Yrotation Zrotation
				JOINT Spine1
				{
					OFFSET 0.000000 11.900002 -1.516600
					CHANNELS 3 Xrotation Yrotation Zrotation
					JOINT Spine2
					{
						OFFSET 0.000000 13.600006 -2.842500
						CHANNELS 3 Xrotation Yrotation Zrotation
						JOINT Neck_virtual
						{
							OFFSET 0.000000 0.000000 0.000000
							CHANNELS 3 Xrotation Yrotation Zrotation
							JOINT Neck
							{
								OFFSET 0.000000 9.624100 -2.890100
								CHANNELS 3 Xrotation Yrotation Zrotation
								JOINT Head
								{
									OFFSET 0.000000 14.068802 -1.351900
									CHANNELS 3 Xrotation Yrotation Zrotation
									End Site
									{
										OFFSET 0 0 0
									}
								}
							}
						}
						JOINT LeftShoulder_virtual
						{
							OFFSET 0.000000 0.000000 0.000000
							CHANNELS 3 Xrotation Yrotation Zrotation
							JOINT LeftShoulder
							{
								OFFSET 15.263000 10.923401 -0.547700
								CHANNELS 3 Xrotation Yrotation Zrotation
								JOINT LeftArm
								{
									OFFSET 25.438599 -2.830597 -13.032500
									CHANNELS 3 Xrotation Yrotation Zrotation
									JOINT LeftForeArm
									{
										OFFSET 29.960503 0.000000 0.000000
										CHANNELS 3 Xrotation Yrotation Zrotation
										JOINT LeftHand
										{
											OFFSET 27.849251 0.000000 0.000000
											CHANNELS 3 Xrotation Yrotation Zrotation
											End Site
											{
												OFFSET 0 0 0
											}
										}
									}
								}
							}
						}
						JOINT RightShoulder_virtual
						{
							OFFSET 0.000000 0.000000 0.000000
							CHANNELS 3 Xrotation Yrotation Zrotation
							JOINT RightShoulder
							{
								OFFSET -15.263000 10.923401 -0.547700
								CHANNELS 3 Xrotation Yrotation Zrotation
								JOINT RightArm
								{
									OFFSET -25.438599 -2.830597 -13.032500
									CHANNELS 3 Xrotation Yrotation Zrotation
									JOINT RightForeArm
									{
										OFFSET -29.960503 0.000000 0.000000
										CHANNELS 3 Xrotation Yrotation Zrotation
										JOINT RightHand
										{
											OFFSET -27.849251 0.000000 0.000000
											CHANNELS 3 Xrotation Yrotation Zrotation
											End Site
											{
												OFFSET 0 0 0
											}
										}
									}
								}
							}
						}
					}
				}
			}
		}
	}
}
MOTION
Frames: 9
Frame Time: 0.03333333
0.420590 111.917740 2.970749 0.000000 0.000000 0.000000 -89.650761 0.337121 0.802663 -11.714271 14.651874 23.034804 13.267862 6.353848 0.135268 29.014586 29.298995 -33.793577 0.000000 0.000000 0.000000 -89.650761 0.337121 0.802663 -14.198783 -13.650360 -17.298301 15.214328 -6.797501 -7.432369 38.741612 -29.042999 33.820662 0.000000 0.000000 0.000000 -89.650761 0.337121 0.802663 0.000000 0.000000 0.000000 1.064077 -1.161375 0.863852 -0.317535 -2.434543 0.230484 0.000000 0.000000 0.000000 -0.303412 -2.418348 0.331943 -3.650834 0.012725 -0.656615 0.000000 0.000000 0.000000 -0.303412 -2.418348 0.331943 0.422244 -0.102999 -4.005443 35.263662 -28.378546 -54.538398 0.000081 -80.454246 0.000067 0.000000 0.000000 0.000000 -0.303412 -2.418348 0.331943 0.646692 1.792568 13.881976 39.542933 30.913354 33.651659 179.997369 78.652101 -179.997396 0.000000 0.000000 0.000000 
0.428272 111.913162 3.001068 0.000000 0.000000 0.000000 -89.707554 0.529198 1.074936 -11.794599 14.264634 22.702692 13.574218 6.142212 0.236306 29.112271 29.267945 -33.651075 0.000000 0.000000 0.000000 -89.707554 0.529198 1.074936 -14.383741 -13.786885 -18.028190 15.301429 -6.149040 -6.895309 40.050392 -29.003671 33.832300 0.000000 0.000000 0.000000 -89.707554 0.529198 1.074936 0.000000 0.000000 0.000000 1.021089 -1.082473 0.853993 -0.521705 -2.314062 0.161337 0.000000 0.000000 0.000000 -0.492039 -2.319871 0.287192 -3.599458 -0.017362 -0.601963 0.000000 0.000000 0.000000 -0.492039 -2.319871 0.287192 0.507659 -1.375825 -4.005944 35.944499 -28.114968 -54.137090 0.000069 -80.729257 0.000079 0.000000 0.000000 0.000000 -0.492039 -2.319871 0.287192 0.569202 1.762516 13.812975 35.720711 29.082102 39.718575 179.965704 79.219970 -179.966100 0.000000 0.000000 0.000000 
0.487538 111.912483 3.006172 0.000000 0.000000 0.000000 -89.779681 0.726126 1.350420 -11.954744 13.828720 22.352638 14.089537 5.910898 0.334597 29.230058 29.219539 -33.390107 0.000000 0.000000 0.000000 -89.779681 0.726126 1.350420 -14.631126 -13.895175 -18.828520 15.055789 -5.708175 -6.373635 42.149039 -28.923232 33.857712 0.000000 0.000000 0.000000 -89.779681 0.726126 1.350420 0.000000 0.000000 0.000000 0.977807 -1.002382 0.828045 -0.725585 -2.193579 0.092203 0.000000 0.000000 0.000000 -0.680580 -2.221394 0.242446 -3.451245 -0.048272 -0.547404 0.000000 0.000000 0.000000 -0.680580 -2.221394 0.242446 0.624282 -2.705505 -3.943881 36.534682 -27.843710 -53.883014 0.000060 -80.975875 0.000054 0.000000 0.000000 0.000000 -0.680580 -2.221394 0.242446 0.504903 1.691344 13.749588 30.303418 27.254043 45.899353 179.998584 81.105300 -179.998612 0.000000 0.000000 0.000000 
0.579016 111.920471 3.012527 0.000000 0.000000 0.000000 -89.779087 0.893910 1.615905 -12.164900 13.452682 21.976199 14.557981 5.692868 0.433589 29.348766 29.172568 -33.109602 0.000000 0.000000 0.000000 -89.779087 0.893910 1.615905 -14.851331 -14.039530 -19.523206 15.047294 -5.253057 -5.939196 42.780651 -28.920892 33.883452 0.000000 0.000000 0.000000 -89.779087 0.893910 1.615905 0.000000 0.000000 0.000000 0.931846 -0.918902 0.798451 -0.917808 -2.053075 0.021351 0.000000 0.000000 0.000000 -0.862921 -2.122841 0.197564 -3.216508 -0.076913 -0.501225 0.000000 0.000000 0.000000 -0.862921 -2.122841 0.197564 0.742971 -4.009704 -3.933649 37.120203 -27.535296 -53.596327 0.000204 -81.245046 0.000219 0.000000 0.000000 0.000000 -0.862921 -2.122841 0.197564 0.491465 1.455981 13.715579 24.469494 26.105044 50.660609 179.999827 84.099532 -179.999814 0.000000 0.000000 0.000000 
0.678101 111.963242 3.016586 0.000000 0.000000 0.000000 -89.553656 0.971380 1.846238 -12.593334 13.165097 21.639933 15.050450 5.530823 0.537888 29.505601 29.119576 -32.827665 0.000000 0.000000 0.000000 -89.553656 0.971380 1.846238 -15.362835 -14.100210 -19.991730 15.196336 -4.779037 -5.822395 43.190817 -28.941222 33.875928 0.000000 0.000000 0.000000 -89.553656 0.971380 1.846238 0.000000 0.000000 0.000000 0.871553 -0.823752 0.768563 -1.068398 -1.863814 -0.054220 0.000000 0.000000 0.000000 -1.015959 -2.024544 0.151549 -2.905658 -0.100995 -0.468745 0.000000 0.000000 0.000000 -1.015959 -2.024544 0.151549 0.858782 -5.206888 -3.948533 37.610956 -27.241228 -53.302561 -0.000152 -81.497763 -0.000150 0.000000 0.000000 0.000000 -1.015959 -2.024544 0.151549 0.565608 0.926264 13.758620 17.972837 25.016664 55.305582 179.999008 87.680491 -179.999021 0.000000 0.000000 0.000000 
0.771059 112.037224 3.022614 0.000000 0.000000 0.000000 -89.068290 0.884207 1.946668 -13.279469 12.940698 21.465744 15.865133 5.440676 0.648206 29.698981 29.060194 -32.646084 0.000000 0.000000 0.000000 -89.068290 0.884207 1.946668 -16.002908 -13.871943 -20.094855 15.326687 -4.614787 -5.909530 43.528707 -28.951915 33.845923 0.000000 0.000000 0.000000 -89.068290 0.884207 1.946668 0.000000 0.000000 0.000000 0.810193 -0.729184 0.728420 -1.173452 -1.675404 -0.132610 0.000000 0.000000 0.000000 -1.093869 -1.928325 0.101877 -2.528978 -0.116582 -0.462156 0.000000 0.000000 0.000000 -1.093869 -1.928325 0.101877 0.951137 -6.215611 -4.035607 38.063169 -26.966782 -52.883679 -0.000222 -81.775096 -0.000221 0.000000 0.000000 0.000000 -1.093869 -1.928325 0.101877 0.704208 0.173206 13.890139 10.477567 22.513441 61.548679 0.006261 89.205494 -0.006236 0.000000 0.000000 0.000000 
0.869615 112.138847 3.040634 0.000000 0.000000 0.000000 -88.498836 0.711187 1.952084 -14.183830 12.666922 21.452159 16.564880 5.576423 0.766923 29.892190 29.005758 -32.627318 0.000000 0.000000 0.000000 -88.498836 0.711187 1.952084 -16.620224 -13.563668 -19.950223 15.184479 -4.699825 -6.036574 43.450033 -28.980318 33.859150 0.000000 0.000000 0.000000 -88.498836 0.711187 1.952084 0.000000 0.000000 0.000000 0.810656 -0.644417 0.681605 -1.086508 -1.505917 -0.213860 0.000000 0.000000 0.000000 -1.033219 -1.833643 0.049775 -2.096920 -0.115928 -0.492651 0.000000 0.000000 0.000000 -1.033219 -1.833643 0.049775 1.023994 -6.554933 -4.401524 38.287998 -26.622674 -52.178834 -0.000178 -82.155578 -0.000156 0.000000 0.000000 0.000000 -1.033219 -1.833643 0.049775 0.763651 -0.439417 14.277132 4.843276 21.899828 64.116120 -0.000515 86.832564 0.000503 0.000000 0.000000 0.000000 
0.942109 112.224884 2.994011 0.000000 0.000000 0.000000 -88.004030 0.538506 1.945382 -14.541546 12.510227 21.322852 16.648636 5.725274 0.893372 30.073217 28.982835 -32.685392 0.000000 0.000000 0.000000 -88.004030 0.538506 1.945382 -17.089506 -13.237429 -19.718285 15.148675 -4.857206 -6.249761 43.121283 -29.011700 33.860820 0.000000 0.000000 0.000000 -88.004030 0.538506 1.945382 0.000000 0.000000 0.000000 0.969186 -0.577833 0.633087 -0.550250 -1.373422 -0.298007 0.000000 0.000000 0.000000 -0.636825 -1.742190 -0.007548 -1.619524 -0.096686 -0.533939 0.000000 0.000000 0.000000 -0.636825 -1.742190 -0.007548 1.047249 -6.308589 -5.059539 38.152296 -26.197185 -51.045385 0.000284 -82.694589 0.000275 0.000000 0.000000 0.000000 -0.636825 -1.742190 -0.007548 0.838298 -0.632779 14.999474 0.240103 21.834042 64.950332 0.000399 85.558692 -0.000391 0.000000 0.000000 0.000000 
0.971965 112.295959 2.901779 0.000000 0.000000 0.000000 -87.672226 0.452139 1.948837 -14.587411 12.411964 21.158316 16.279097 5.924139 1.023719 30.471181 28.968110 -32.766091 0.000000 0.000000 0.000000 -87.672226 0.452139 1.948837 -17.164660 -13.018388 -19.362140 15.198416 -4.873684 -6.570331 41.895605 -29.107363 33.889650 0.000000 0.000000 0.000000 -87.672226 0.452139 1.948837 0.000000 0.000000 0.000000 1.312871 -0.539725 0.590213 0.197207 -1.296445 -0.389917 0.000000 0.000000 0.000000 0.127712 -1.655916 -0.073351 -1.107069 -0.057969 -0.585825 0.000000 0.000000 0.000000 0.127712 -1.655916 -0.073351 0.975096 -5.248806 -5.907838 37.979663 -26.272732 -49.034106 -0.000164 -83.270019 -0.000182 0.000000 0.000000 0.000000 0.127712 -1.655916 -0.073351 0.916512 -0.327796 16.072536 -2.191965 22.716875 63.120701 0.000920 86.297521 -0.000912 0.000000 0.000000 0.000000 
